<?xml version="1.0" encoding="UTF-8" standalone="no"?>
<svg
   xmlns:shaper="http://www.shapertools.com/namespaces/shaper"
   xmlns:dc="http://purl.org/dc/elements/1.1/"
   xmlns:cc="http://creativecommons.org/ns#"
   xmlns:rdf="http://www.w3.org/1999/02/22-rdf-syntax-ns#"
   xmlns:svg="http://www.w3.org/2000/svg"
   xmlns="http://www.w3.org/2000/svg"
   xmlns:sodipodi="http://sodipodi.sourceforge.net/DTD/sodipodi-0.dtd"
   xmlns:inkscape="http://www.inkscape.org/namespaces/inkscape"
   enable-background="new 0 0 6.395 5.802"
   height="5.802cm"
   shaper:fusionaddin="version:1.5.0"
   version="1.1"
   viewBox="0 0 6.395 5.802"
   width="6.395cm"
   x="0cm"
   xml:space="preserve"
   y="0cm"
   id="svg6"
   sodipodi:docname="4_pcb (1) (1)_Faces.svg"
   inkscape:version="1.0.2-2 (e86c870879, 2021-01-15)"><metadata
     id="metadata12"><rdf:RDF><cc:Work
         rdf:about=""><dc:format>image/svg+xml</dc:format><dc:type
           rdf:resource="http://purl.org/dc/dcmitype/StillImage" /></cc:Work></rdf:RDF></metadata><defs
     id="defs10" /><sodipodi:namedview
     pagecolor="#ffffff"
     bordercolor="#666666"
     borderopacity="1"
     objecttolerance="10"
     gridtolerance="10"
     guidetolerance="10"
     inkscape:pageopacity="0"
     inkscape:pageshadow="2"
     inkscape:window-width="3440"
     inkscape:window-height="1377"
     id="namedview8"
     showgrid="false"
     inkscape:zoom="4.9209113"
     inkscape:cx="120.85039"
     inkscape:cy="109.6441"
     inkscape:window-x="-8"
     inkscape:window-y="-8"
     inkscape:window-maximized="1"
     inkscape:current-layer="svg6" /><path
     d="M-0.4,0.4 A0.4,0.4 180 0,1 -0,0 L5.595,0 A0.4,0.4 270 0,1 5.995,0.4 L5.995,5.402 A0.4,0.4 0 0,1 5.595,5.802 L0,5.802 A0.4,0.4 89.9999988 0,1 -0.4,5.402 L-0.4,0.4z"
     fill="rgb(0,0,0)"
     shaper:cutDepth="0"
     shaper:pathType="exterior"
     transform="matrix(1,0,0,-1,0.4,5.802)"
     vector-effect="non-scaling-stroke"
     id="path2"
     style="stroke:#ff0000;stroke-opacity:1;fill:none" /><path
     d="M0.2,0.4 A0.2,0.2 0 1,0 -0,0.6 L0.1,0.6 0.1,5.202 0,5.202 A0.2,0.2 270 1,0 0.2,5.402 L0.2,5.302 5.395,5.302 5.395,5.402 A0.2,0.2 180 1,0 5.595,5.202 L5.495,5.202 5.495,0.6 5.595,0.6 A0.2,0.2 90 1,0 5.395,0.4 L5.395,0.5 0.2,0.5 0.2,0.4z"
     fill="rgb(255,255,255)"
     shaper:cutDepth="0"
     shaper:pathType="interior"
     stroke="rgb(0,0,0)"
     transform="matrix(1,0,0,-1,0.4,5.802)"
     vector-effect="non-scaling-stroke"
     id="path4"
     style="stroke:#ff0000;stroke-opacity:1;fill:none" /></svg>
