<?xml version="1.0" encoding="UTF-8" standalone="no"?>
<svg
   xmlns:shaper="http://www.shapertools.com/namespaces/shaper"
   xmlns:dc="http://purl.org/dc/elements/1.1/"
   xmlns:cc="http://creativecommons.org/ns#"
   xmlns:rdf="http://www.w3.org/1999/02/22-rdf-syntax-ns#"
   xmlns:svg="http://www.w3.org/2000/svg"
   xmlns="http://www.w3.org/2000/svg"
   xmlns:sodipodi="http://sodipodi.sourceforge.net/DTD/sodipodi-0.dtd"
   xmlns:inkscape="http://www.inkscape.org/namespaces/inkscape"
   enable-background="new 0 0 29.0066208 7.202"
   height="7.202cm"
   shaper:fusionaddin="version:1.5.0"
   version="1.1"
   viewBox="0 0 29.0066208 7.202"
   width="29.0066208cm"
   x="0cm"
   xml:space="preserve"
   y="0cm"
   id="svg52"
   sodipodi:docname="_2x_clock_frame_bottom_top_cover.svg"
   inkscape:version="1.0.2-2 (e86c870879, 2021-01-15)"><metadata
     id="metadata58"><rdf:RDF><cc:Work
         rdf:about=""><dc:format>image/svg+xml</dc:format><dc:type
           rdf:resource="http://purl.org/dc/dcmitype/StillImage" /></cc:Work></rdf:RDF></metadata><defs
     id="defs56" /><sodipodi:namedview
     pagecolor="#ffffff"
     bordercolor="#666666"
     borderopacity="1"
     objecttolerance="10"
     gridtolerance="10"
     guidetolerance="10"
     inkscape:pageopacity="0"
     inkscape:pageshadow="2"
     inkscape:window-width="3440"
     inkscape:window-height="1369"
     id="namedview54"
     showgrid="false"
     inkscape:zoom="2.6041101"
     inkscape:cx="583.18973"
     inkscape:cy="135.24884"
     inkscape:window-x="-8"
     inkscape:window-y="-8"
     inkscape:window-maximized="1"
     inkscape:current-layer="svg52"
     inkscape:document-rotation="0" /><path
     d="M27.8066208,0 A0.6,0.6 270 0,1 28.4066208,0.6 L28.4066208,6.602 A0.6,0.6 0 0,1 27.8066208,7.202 L0,7.202 A0.6,0.6 90 0,1 -0.6,6.602 L-0.6,0.6 A0.6,0.6 180 0,1 -0,-0 L27.8066208,0z"
     fill="rgb(0,0,0)"
     shaper:cutDepth="0"
     shaper:pathType="exterior"
     transform="matrix(1,0,0,-1,0.6,7.202)"
     vector-effect="non-scaling-stroke"
     id="path2"
     style="stroke:#ff0000;stroke-opacity:1;fill:none" /><path
     d="M0.3,1.1019999 a0.2,0.2 0 1,1 0.4,0 a0.2,0.2 0 1,1 -0.4,0z"
     fill="rgb(255,255,255)"
     shaper:cutDepth="0"
     shaper:pathType="interior"
     stroke="rgb(0,0,0)"
     transform="matrix(1,0,0,-1,0.6,7.202)"
     vector-effect="non-scaling-stroke"
     id="path4"
     style="stroke:#ff0000;stroke-opacity:1;fill:none" /><path
     d="M5.9000001,1.1019999 a0.2,0.2 0 1,1 0.4,0 a0.2,0.2 0 1,1 -0.4,0z"
     fill="rgb(255,255,255)"
     shaper:cutDepth="0"
     shaper:pathType="interior"
     stroke="rgb(0,0,0)"
     transform="matrix(1,0,0,-1,0.6,7.202)"
     vector-effect="non-scaling-stroke"
     id="path6"
     style="stroke:#ff0000;stroke-opacity:1;fill:none" /><path
     d="M14.802207,1.1 a0.2,0.2 0 1,1 0.4,0 a0.2,0.2 0 1,1 -0.4,0z"
     fill="rgb(255,255,255)"
     shaper:cutDepth="0"
     shaper:pathType="interior"
     stroke="rgb(0,0,0)"
     transform="matrix(1,0,0,-1,0.6,7.202)"
     vector-effect="non-scaling-stroke"
     id="path8"
     style="stroke:#ff0000;stroke-opacity:1;fill:none" /><path
     d="M5.9000001,6.102 a0.2,0.2 0 1,1 0.4,0 a0.2,0.2 0 1,1 -0.4,0z"
     fill="rgb(255,255,255)"
     shaper:cutDepth="0"
     shaper:pathType="interior"
     stroke="rgb(0,0,0)"
     transform="matrix(1,0,0,-1,0.6,7.202)"
     vector-effect="non-scaling-stroke"
     id="path10"
     style="stroke:#ff0000;stroke-opacity:1;fill:none" /><path
     d="M7.2000001,5.502 L7.8000001,5.502 7.8000001,1.7019999 7.2000001,1.7019999 7.2000001,5.502z"
     fill="rgb(255,255,255)"
     shaper:cutDepth="0"
     shaper:pathType="interior"
     stroke="rgb(0,0,0)"
     transform="matrix(1,0,0,-1,0.6,7.202)"
     vector-effect="non-scaling-stroke"
     id="path12"
     style="stroke:#ff0000;stroke-opacity:1;fill:none" /><path
     d="M27.1066208,1.1 a0.2,0.2 0 1,1 0.4,0 a0.2,0.2 0 1,1 -0.4,0z"
     fill="rgb(255,255,255)"
     shaper:cutDepth="0"
     shaper:pathType="interior"
     stroke="rgb(0,0,0)"
     transform="matrix(1,0,0,-1,0.6,7.202)"
     vector-effect="non-scaling-stroke"
     id="path14"
     style="stroke:#ff0000;stroke-opacity:1;fill:none" /><path
     d="M12.602207,1.1 a0.2,0.2 0 1,1 0.4,0 a0.2,0.2 0 1,1 -0.4,0z"
     fill="rgb(255,255,255)"
     shaper:cutDepth="0"
     shaper:pathType="interior"
     stroke="rgb(0,0,0)"
     transform="matrix(1,0,0,-1,0.6,7.202)"
     vector-effect="non-scaling-stroke"
     id="path16"
     style="stroke:#ff0000;stroke-opacity:1;fill:none" /><path
     d="M22.0044139,5.502 L22.6044139,5.502 22.6044139,1.7019999 22.0044139,1.7019999 22.0044139,5.502z"
     fill="rgb(255,255,255)"
     shaper:cutDepth="0"
     shaper:pathType="interior"
     stroke="rgb(0,0,0)"
     transform="matrix(1,0,0,-1,0.6,7.202)"
     vector-effect="non-scaling-stroke"
     id="path18"
     style="stroke:#ff0000;stroke-opacity:1;fill:none" /><path
     d="M4.9,1.7019999 L4.9,5.502 5.5,5.502 5.5,1.7019999 4.9,1.7019999z"
     fill="rgb(255,255,255)"
     shaper:cutDepth="0"
     shaper:pathType="interior"
     stroke="rgb(0,0,0)"
     vector-effect="non-scaling-stroke"
     id="path20"
     style="stroke:#ff0000;stroke-opacity:1;fill:none"
     transform="matrix(1,0,0,-1,0.6,7.202)" /><path
     d="M20.4044139,6.102 a0.2,0.2 0 1,1 0.4,0 a0.2,0.2 0 1,1 -0.4,0z"
     fill="rgb(255,255,255)"
     shaper:cutDepth="0"
     shaper:pathType="interior"
     stroke="rgb(0,0,0)"
     transform="matrix(1,0,0,-1,0.6,7.202)"
     vector-effect="non-scaling-stroke"
     id="path22"
     style="stroke:#ff0000;stroke-opacity:1;fill:none" /><path
     d="M12.602207,6.102 a0.2,0.2 0 1,1 0.4,0 a0.2,0.2 0 1,1 -0.4,0z"
     fill="rgb(255,255,255)"
     shaper:cutDepth="0"
     shaper:pathType="interior"
     stroke="rgb(0,0,0)"
     transform="matrix(1,0,0,-1,0.6,7.202)"
     vector-effect="non-scaling-stroke"
     id="path24"
     style="stroke:#ff0000;stroke-opacity:1;fill:none" /><path
     d="M0.3,6.102 a0.2,0.2 0 1,1 0.4,0 a0.2,0.2 0 1,1 -0.4,0z"
     fill="rgb(255,255,255)"
     shaper:cutDepth="0"
     shaper:pathType="interior"
     stroke="rgb(0,0,0)"
     transform="matrix(1,0,0,-1,0.6,7.202)"
     vector-effect="non-scaling-stroke"
     id="path26"
     style="stroke:#ff0000;stroke-opacity:1;fill:none" /><path
     d="M11.3000001,1.7019999 L11.3000001,5.502 11.9000001,5.502 11.9000001,1.7019999 11.3000001,1.7019999z"
     fill="rgb(255,255,255)"
     shaper:cutDepth="0"
     shaper:pathType="interior"
     stroke="rgb(0,0,0)"
     transform="matrix(1,0,0,-1,0.6,7.202)"
     vector-effect="non-scaling-stroke"
     id="path28"
     style="stroke:#ff0000;stroke-opacity:1;fill:none" /><path
     d="M21.5044139,6.102 a0.2,0.2 0 1,1 0.4,0 a0.2,0.2 0 1,1 -0.4,0z"
     fill="rgb(255,255,255)"
     shaper:cutDepth="0"
     shaper:pathType="interior"
     stroke="rgb(0,0,0)"
     transform="matrix(1,0,0,-1,0.6,7.202)"
     vector-effect="non-scaling-stroke"
     id="path30"
     style="stroke:#ff0000;stroke-opacity:1;fill:none" /><path
     d="M19.402207,1.7019999 L19.402207,5.502 20.002207,5.502 20.002207,1.7019999 19.402207,1.7019999z"
     fill="rgb(255,255,255)"
     shaper:cutDepth="0"
     shaper:pathType="interior"
     stroke="rgb(0,0,0)"
     transform="matrix(1,0,0,-1,0.6,7.202)"
     vector-effect="non-scaling-stroke"
     id="path32"
     style="stroke:#ff0000;stroke-opacity:1;fill:none" /><path
     d="M20.4044139,1.1 a0.2,0.2 0 1,1 0.4,0 a0.2,0.2 0 1,1 -0.4,0z"
     fill="rgb(255,255,255)"
     shaper:cutDepth="0"
     shaper:pathType="interior"
     stroke="rgb(0,0,0)"
     transform="matrix(1,0,0,-1,0.6,7.202)"
     vector-effect="non-scaling-stroke"
     id="path34"
     style="stroke:#ff0000;stroke-opacity:1;fill:none" /><path
     d="M26.1044139,1.7019999 L26.1044139,5.502 26.7044139,5.502 26.7044139,1.7019999 26.1044139,1.7019999z"
     fill="rgb(255,255,255)"
     shaper:cutDepth="0"
     shaper:pathType="interior"
     stroke="rgb(0,0,0)"
     transform="matrix(1,0,0,-1,0.6,7.202)"
     vector-effect="non-scaling-stroke"
     id="path36"
     style="stroke:#ff0000;stroke-opacity:1;fill:none" /><path
     d="M14.802207,6.102 a0.2,0.2 0 1,1 0.4,0 a0.2,0.2 0 1,1 -0.4,0z"
     fill="rgb(255,255,255)"
     shaper:cutDepth="0"
     shaper:pathType="interior"
     stroke="rgb(0,0,0)"
     transform="matrix(1,0,0,-1,0.6,7.202)"
     vector-effect="non-scaling-stroke"
     id="path38"
     style="stroke:#ff0000;stroke-opacity:1;fill:none" /><path
     d="M27.1066208,6.102 a0.2,0.2 0 1,1 0.4,0 a0.2,0.2 0 1,1 -0.4,0z"
     fill="rgb(255,255,255)"
     shaper:cutDepth="0"
     shaper:pathType="interior"
     stroke="rgb(0,0,0)"
     transform="matrix(1,0,0,-1,0.6,7.202)"
     vector-effect="non-scaling-stroke"
     id="path40"
     style="stroke:#ff0000;stroke-opacity:1;fill:none" /><path
     d="M7.0000001,1.1 a0.2,0.2 0 1,1 0.4,0 a0.2,0.2 0 1,1 -0.4,0z"
     fill="rgb(255,255,255)"
     shaper:cutDepth="0"
     shaper:pathType="interior"
     stroke="rgb(0,0,0)"
     transform="matrix(1,0,0,-1,0.6,7.202)"
     vector-effect="non-scaling-stroke"
     id="path42"
     style="stroke:#ff0000;stroke-opacity:1;fill:none" /><path
     d="M7.0000001,6.102 a0.2,0.2 0 1,1 0.4,0 a0.2,0.2 0 1,1 -0.4,0z"
     fill="rgb(255,255,255)"
     shaper:cutDepth="0"
     shaper:pathType="interior"
     stroke="rgb(0,0,0)"
     transform="matrix(1,0,0,-1,0.6,7.202)"
     vector-effect="non-scaling-stroke"
     id="path44"
     style="stroke:#ff0000;stroke-opacity:1;fill:none" /><path
     d="M21.5044139,1.1 a0.2,0.2 0 1,1 0.4,0 a0.2,0.2 0 1,1 -0.4,0z"
     fill="rgb(255,255,255)"
     shaper:cutDepth="0"
     shaper:pathType="interior"
     stroke="rgb(0,0,0)"
     transform="matrix(1,0,0,-1,0.6,7.202)"
     vector-effect="non-scaling-stroke"
     id="path46"
     style="stroke:#ff0000;stroke-opacity:1;fill:none" /><path
     d="M15.302207,5.502 L15.902207,5.502 15.902207,1.7019999 15.302207,1.7019999 15.302207,5.502z"
     fill="rgb(255,255,255)"
     shaper:cutDepth="0"
     shaper:pathType="interior"
     stroke="rgb(0,0,0)"
     transform="matrix(1,0,0,-1,0.6,7.202)"
     vector-effect="non-scaling-stroke"
     id="path48"
     style="stroke:#ff0000;stroke-opacity:1;fill:none" /><path
     d="M0.8,1.7019999 L0.8,5.502 1.4,5.502 1.4,1.7019999 0.8,1.7019999z"
     fill="rgb(255,255,255)"
     shaper:cutDepth="0"
     shaper:pathType="interior"
     stroke="rgb(0,0,0)"
     vector-effect="non-scaling-stroke"
     id="path50"
     style="stroke:#ff0000;stroke-opacity:1;fill:none"
     transform="matrix(1,0,0,-1,0.6,7.202)" /><path
     d="M 2,5.5000001 V 1.7 h 0.6 v 3.8000001 z"
     fill="rgb(255,255,255)"
     shaper:cutDepth="0"
     shaper:pathType="interior"
     stroke="rgb(0,0,0)"
     vector-effect="non-scaling-stroke"
     id="path50-7"
     style="fill:none;stroke:#ff0000;stroke-opacity:1" /><path
     d="M 4.9,5.5000001 V 1.7 h 0.6 v 3.8000001 z"
     fill="rgb(255,255,255)"
     shaper:cutDepth="0"
     shaper:pathType="interior"
     stroke="rgb(0,0,0)"
     vector-effect="non-scaling-stroke"
     id="path50-0"
     style="fill:none;stroke:#ff0000;stroke-opacity:1" /><path
     d="M 8.4000001,5.5000001 V 1.7 h 0.6 v 3.8000001 z"
     fill="rgb(255,255,255)"
     shaper:cutDepth="0"
     shaper:pathType="interior"
     stroke="rgb(0,0,0)"
     vector-effect="non-scaling-stroke"
     id="path50-3"
     style="fill:none;stroke:#ff0000;stroke-opacity:1" /><path
     d="M 11.3,5.5000001 V 1.7 h 0.6 v 3.8000001 z"
     fill="rgb(255,255,255)"
     shaper:cutDepth="0"
     shaper:pathType="interior"
     stroke="rgb(0,0,0)"
     vector-effect="non-scaling-stroke"
     id="path50-9"
     style="fill:none;stroke:#ff0000;stroke-opacity:1" /><path
     d="M 16.502207,5.5000001 V 1.7 h 0.6 v 3.8000001 z"
     fill="rgb(255,255,255)"
     shaper:cutDepth="0"
     shaper:pathType="interior"
     stroke="rgb(0,0,0)"
     vector-effect="non-scaling-stroke"
     id="path50-38"
     style="fill:none;stroke:#ff0000;stroke-opacity:1" /><path
     d="M 19.402207,5.5000001 V 1.7 h 0.6 v 3.8000001 z"
     fill="rgb(255,255,255)"
     shaper:cutDepth="0"
     shaper:pathType="interior"
     stroke="rgb(0,0,0)"
     vector-effect="non-scaling-stroke"
     id="path50-1"
     style="fill:none;stroke:#ff0000;stroke-opacity:1" /><path
     d="M 23.204414,5.5000001 V 1.7 h 0.6 v 3.8000001 z"
     fill="rgb(255,255,255)"
     shaper:cutDepth="0"
     shaper:pathType="interior"
     stroke="rgb(0,0,0)"
     vector-effect="non-scaling-stroke"
     id="path50-5"
     style="fill:none;stroke:#ff0000;stroke-opacity:1" /><path
     d="M 26.104414,5.5000001 V 1.7 h 0.6 v 3.8000001 z"
     fill="rgb(255,255,255)"
     shaper:cutDepth="0"
     shaper:pathType="interior"
     stroke="rgb(0,0,0)"
     vector-effect="non-scaling-stroke"
     id="path50-4"
     style="fill:none;stroke:#ff0000;stroke-opacity:1" /></svg>
