<?xml version="1.0" encoding="utf-8"?>
<!-- Generator: Fusion 360, Shaper Origin Export Add-In, Version 1.5.0  -->
<svg enable-background="new 0 0 29.0066208 7.202" height="7.202cm" shaper:fusionaddin="version:1.5.0" version="1.1" viewBox="0 0 29.0066208 7.202" width="29.0066208cm" x="0cm" xml:space="preserve" xmlns="http://www.w3.org/2000/svg" xmlns:shaper="http://www.shapertools.com/namespaces/shaper" xmlns:xlink="http://www.w3.org/1999/xlink" y="0cm"><path d="M-0.6,0.6 A0.6,0.6 180 0,1 -0,-0 L27.8066208,0 A0.6,0.6 270 0,1 28.4066208,0.6 L28.4066208,6.602 A0.6,0.6 0 0,1 27.8066208,7.202 L0,7.202 A0.6,0.6 90 0,1 -0.6,6.602 L-0.6,0.6z" fill="rgb(0,0,0)" shaper:cutDepth="0" shaper:pathType="exterior" transform="matrix(1,0,0,-1,0.6,7.202)" vector-effect="non-scaling-stroke" /><path d="M21.5035792,6.1030296 a0.2,0.2 0 1,1 0.4,0 a0.2,0.2 0 1,1 -0.4,0z" fill="rgb(255,255,255)" shaper:cutDepth="0" shaper:pathType="interior" stroke="rgb(0,0,0)" transform="matrix(1,0,0,-1,0.6,7.202)" vector-effect="non-scaling-stroke" /><path d="M20.4026599,6.1018425 a0.2,0.2 0 1,1 0.4,0 a0.2,0.2 0 1,1 -0.4,0z" fill="rgb(255,255,255)" shaper:cutDepth="0" shaper:pathType="interior" stroke="rgb(0,0,0)" transform="matrix(1,0,0,-1,0.6,7.202)" vector-effect="non-scaling-stroke" /><path d="M26.9066208,1.5019999 L1.3,1.5019999 A1.05,1.05 270 0,0 0.25,2.5519999 L0.25,4.652 A1.05,1.05 180 0,0 1.3,5.702 L26.4566208,5.702 A1.05,1.05 90 0,0 27.5066208,4.652 L27.5066208,2.4486833 A1.05,1.05 0 0,0 26.9066208,1.5 L26.9066208,1.5019999z" fill="rgb(255,255,255)" shaper:cutDepth="0" shaper:pathType="interior" stroke="rgb(0,0,0)" transform="matrix(1,0,0,-1,0.6,7.202)" vector-effect="non-scaling-stroke" /><path d="M6.0719826,0.9 A0.2,0.2 261.5865062 1,0 6.130509,0.9 L6.0719826,0.9z" fill="rgb(255,255,255)" shaper:cutDepth="0" shaper:pathType="interior" stroke="rgb(0,0,0)" transform="matrix(1,0,0,-1,0.6,7.202)" vector-effect="non-scaling-stroke" /><path d="M20.4091207,1.102 a0.2,0.2 0 1,1 0.4,0 a0.2,0.2 0 1,1 -0.4,0z" fill="rgb(255,255,255)" shaper:cutDepth="0" shaper:pathType="interior" stroke="rgb(0,0,0)" transform="matrix(1,0,0,-1,0.6,7.202)" vector-effect="non-scaling-stroke" /><path d="M21.5091208,1.102 a0.2,0.2 0 1,1 0.4,0 a0.2,0.2 0 1,1 -0.4,0z" fill="rgb(255,255,255)" shaper:cutDepth="0" shaper:pathType="interior" stroke="rgb(0,0,0)" transform="matrix(1,0,0,-1,0.6,7.202)" vector-effect="non-scaling-stroke" /><path d="M5.9026597,6.1018425 a0.2,0.2 0 1,1 0.4,0 a0.2,0.2 0 1,1 -0.4,0z" fill="rgb(255,255,255)" shaper:cutDepth="0" shaper:pathType="interior" stroke="rgb(0,0,0)" transform="matrix(1,0,0,-1,0.6,7.202)" vector-effect="non-scaling-stroke" /><path d="M7.0000348,6.1029261 a0.2,0.2 0 1,1 0.4,0 a0.2,0.2 0 1,1 -0.4,0z" fill="rgb(255,255,255)" shaper:cutDepth="0" shaper:pathType="interior" stroke="rgb(0,0,0)" transform="matrix(1,0,0,-1,0.6,7.202)" vector-effect="non-scaling-stroke" /><path d="M0.3,1.1 a0.2,0.2 0 1,1 0.4,0 a0.2,0.2 0 1,1 -0.4,0z" fill="rgb(255,255,255)" shaper:cutDepth="0" shaper:pathType="interior" stroke="rgb(0,0,0)" transform="matrix(1,0,0,-1,0.6,7.202)" vector-effect="non-scaling-stroke" /><path d="M14.8044138,6.102 a0.2,0.2 0 1,1 0.4,0 a0.2,0.2 0 1,1 -0.4,0z" fill="rgb(255,255,255)" shaper:cutDepth="0" shaper:pathType="interior" stroke="rgb(0,0,0)" transform="matrix(1,0,0,-1,0.6,7.202)" vector-effect="non-scaling-stroke" /><path d="M12.6044138,6.102 a0.2,0.2 0 1,1 0.4,0 a0.2,0.2 0 1,1 -0.4,0z" fill="rgb(255,255,255)" shaper:cutDepth="0" shaper:pathType="interior" stroke="rgb(0,0,0)" transform="matrix(1,0,0,-1,0.6,7.202)" vector-effect="non-scaling-stroke" /><path d="M14.8044138,1.1 a0.2,0.2 0 1,1 0.4,0 a0.2,0.2 0 1,1 -0.4,0z" fill="rgb(255,255,255)" shaper:cutDepth="0" shaper:pathType="interior" stroke="rgb(0,0,0)" transform="matrix(1,0,0,-1,0.6,7.202)" vector-effect="non-scaling-stroke" /><path d="M12.6044138,1.1 a0.2,0.2 0 1,1 0.4,0 a0.2,0.2 0 1,1 -0.4,0z" fill="rgb(255,255,255)" shaper:cutDepth="0" shaper:pathType="interior" stroke="rgb(0,0,0)" transform="matrix(1,0,0,-1,0.6,7.202)" vector-effect="non-scaling-stroke" /><path d="M27.1066208,1.1019999 a0.2,0.2 0 1,1 0.4,0 a0.2,0.2 0 1,1 -0.4,0z" fill="rgb(255,255,255)" shaper:cutDepth="0" shaper:pathType="interior" stroke="rgb(0,0,0)" transform="matrix(1,0,0,-1,0.6,7.202)" vector-effect="non-scaling-stroke" /><path d="M0.3,6.102 a0.2,0.2 0 1,1 0.4,0 a0.2,0.2 0 1,1 -0.4,0z" fill="rgb(255,255,255)" shaper:cutDepth="0" shaper:pathType="interior" stroke="rgb(0,0,0)" transform="matrix(1,0,0,-1,0.6,7.202)" vector-effect="non-scaling-stroke" /><path d="M27.1066208,6.102 a0.2,0.2 0 1,1 0.4,0 a0.2,0.2 0 1,1 -0.4,0z" fill="rgb(255,255,255)" shaper:cutDepth="0" shaper:pathType="interior" stroke="rgb(0,0,0)" transform="matrix(1,0,0,-1,0.6,7.202)" vector-effect="non-scaling-stroke" /><path d="M7.1951841,0.9 A0.2,0.2 267.9249944 1,0 7.2096672,0.9 L7.1951841,0.9z" fill="rgb(255,255,255)" shaper:cutDepth="0" shaper:pathType="interior" stroke="rgb(0,0,0)" transform="matrix(1,0,0,-1,0.6,7.202)" vector-effect="non-scaling-stroke" /></svg>