<?xml version="1.0" encoding="UTF-8" standalone="no"?>
<svg
   xmlns:shaper="http://www.shapertools.com/namespaces/shaper"
   xmlns:dc="http://purl.org/dc/elements/1.1/"
   xmlns:cc="http://creativecommons.org/ns#"
   xmlns:rdf="http://www.w3.org/1999/02/22-rdf-syntax-ns#"
   xmlns:svg="http://www.w3.org/2000/svg"
   xmlns="http://www.w3.org/2000/svg"
   xmlns:sodipodi="http://sodipodi.sourceforge.net/DTD/sodipodi-0.dtd"
   xmlns:inkscape="http://www.inkscape.org/namespaces/inkscape"
   enable-background="new 0 0 29.0066208 7.202"
   height="7.202cm"
   shaper:fusionaddin="version:1.5.0"
   version="1.1"
   viewBox="0 0 29.0066208 7.202"
   width="29.0066208cm"
   x="0cm"
   xml:space="preserve"
   y="0cm"
   id="svg22"
   sodipodi:docname="Körper33_Faces.svg"
   inkscape:version="1.0.2-2 (e86c870879, 2021-01-15)"><metadata
     id="metadata28"><rdf:RDF><cc:Work
         rdf:about=""><dc:format>image/svg+xml</dc:format><dc:type
           rdf:resource="http://purl.org/dc/dcmitype/StillImage" /></cc:Work></rdf:RDF></metadata><defs
     id="defs26" /><sodipodi:namedview
     pagecolor="#ffffff"
     bordercolor="#666666"
     borderopacity="1"
     objecttolerance="10"
     gridtolerance="10"
     guidetolerance="10"
     inkscape:pageopacity="0"
     inkscape:pageshadow="2"
     inkscape:window-width="3440"
     inkscape:window-height="1377"
     id="namedview24"
     showgrid="false"
     inkscape:zoom="1.0848981"
     inkscape:cx="548.15661"
     inkscape:cy="136.10079"
     inkscape:window-x="-8"
     inkscape:window-y="-8"
     inkscape:window-maximized="1"
     inkscape:current-layer="svg22" /><path
     d="M-0.6,0.6 A0.6,0.6 180 0,1 -0,-0 L27.8066208,0 A0.6,0.6 270 0,1 28.4066208,0.6 L28.4066208,6.602 A0.6,0.6 0 0,1 27.8066208,7.202 L0,7.202 A0.6,0.6 90 0,1 -0.6,6.602 L-0.6,0.6z"
     fill="rgb(0,0,0)"
     shaper:cutDepth="0"
     shaper:pathType="exterior"
     transform="matrix(1,0,0,-1,0.6,7.202)"
     vector-effect="non-scaling-stroke"
     id="path2"
     style="stroke:#ff0000;stroke-opacity:1;fill:none" /><path
     d="M0.3,1.1 a0.2,0.2 0 1,1 0.4,0 a0.2,0.2 0 1,1 -0.4,0z"
     fill="rgb(255,255,255)"
     shaper:cutDepth="0"
     shaper:pathType="interior"
     stroke="rgb(0,0,0)"
     transform="matrix(1,0,0,-1,0.6,7.202)"
     vector-effect="non-scaling-stroke"
     id="path4"
     style="stroke:#ff0000;stroke-opacity:1;fill:none" /><path
     d="M14.8044138,6.102 a0.2,0.2 0 1,1 0.4,0 a0.2,0.2 0 1,1 -0.4,0z"
     fill="rgb(255,255,255)"
     shaper:cutDepth="0"
     shaper:pathType="interior"
     stroke="rgb(0,0,0)"
     transform="matrix(1,0,0,-1,0.6,7.202)"
     vector-effect="non-scaling-stroke"
     id="path6"
     style="stroke:#ff0000;stroke-opacity:1;fill:none" /><path
     d="M12.6044138,6.102 a0.2,0.2 0 1,1 0.4,0 a0.2,0.2 0 1,1 -0.4,0z"
     fill="rgb(255,255,255)"
     shaper:cutDepth="0"
     shaper:pathType="interior"
     stroke="rgb(0,0,0)"
     transform="matrix(1,0,0,-1,0.6,7.202)"
     vector-effect="non-scaling-stroke"
     id="path8"
     style="stroke:#ff0000;stroke-opacity:1;fill:none" /><path
     d="M14.8044138,1.1 a0.2,0.2 0 1,1 0.4,0 a0.2,0.2 0 1,1 -0.4,0z"
     fill="rgb(255,255,255)"
     shaper:cutDepth="0"
     shaper:pathType="interior"
     stroke="rgb(0,0,0)"
     transform="matrix(1,0,0,-1,0.6,7.202)"
     vector-effect="non-scaling-stroke"
     id="path10"
     style="stroke:#ff0000;stroke-opacity:1;fill:none" /><path
     d="M12.6044138,1.1 a0.2,0.2 0 1,1 0.4,0 a0.2,0.2 0 1,1 -0.4,0z"
     fill="rgb(255,255,255)"
     shaper:cutDepth="0"
     shaper:pathType="interior"
     stroke="rgb(0,0,0)"
     transform="matrix(1,0,0,-1,0.6,7.202)"
     vector-effect="non-scaling-stroke"
     id="path12"
     style="stroke:#ff0000;stroke-opacity:1;fill:none" /><path
     d="M27.1066208,1.1019999 a0.2,0.2 0 1,1 0.4,0 a0.2,0.2 0 1,1 -0.4,0z"
     fill="rgb(255,255,255)"
     shaper:cutDepth="0"
     shaper:pathType="interior"
     stroke="rgb(0,0,0)"
     transform="matrix(1,0,0,-1,0.6,7.202)"
     vector-effect="non-scaling-stroke"
     id="path14"
     style="stroke:#ff0000;stroke-opacity:1;fill:none" /><path
     d="M0.3,6.102 a0.2,0.2 0 1,1 0.4,0 a0.2,0.2 0 1,1 -0.4,0z"
     fill="rgb(255,255,255)"
     shaper:cutDepth="0"
     shaper:pathType="interior"
     stroke="rgb(0,0,0)"
     transform="matrix(1,0,0,-1,0.6,7.202)"
     vector-effect="non-scaling-stroke"
     id="path16"
     style="stroke:#ff0000;stroke-opacity:1;fill:none" /><path
     d="M27.1066208,6.102 a0.2,0.2 0 1,1 0.4,0 a0.2,0.2 0 1,1 -0.4,0z"
     fill="rgb(255,255,255)"
     shaper:cutDepth="0"
     shaper:pathType="interior"
     stroke="rgb(0,0,0)"
     transform="matrix(1,0,0,-1,0.6,7.202)"
     vector-effect="non-scaling-stroke"
     id="path18"
     style="stroke:#ff0000;stroke-opacity:1;fill:none" /><path
     d="M27.1066208,1.5 A0.2,0.2 90 0,1 26.9066208,1.3 L26.9066208,0.9 15.6033104,0.9 15.6033104,1.3 A0.2,0.2 0 0,1 15.4033104,1.5 L12.4033104,1.5 A0.2,0.2 90 0,1 12.2033104,1.3 L12.2033104,0.9 0.9191204,0.9 0.9191204,1.3019999 A0.2,0.2 0 0,1 0.7191204,1.5019999 L0.25,1.5019999 0.25,5.702 0.7,5.702 A0.2,0.2 270 0,1 0.9,5.902 L0.9,6.352 12.2033104,6.352 12.2033104,5.902 A0.2,0.2 180 0,1 12.4033104,5.702 L15.4033104,5.702 A0.2,0.2 270 0,1 15.6033104,5.902 L15.6033104,6.352 26.9191208,6.352 26.9191208,5.902 A0.2,0.2 180 0,1 27.1191208,5.702 L27.5066208,5.702 27.5066208,1.5 27.1066208,1.5z"
     fill="rgb(255,255,255)"
     shaper:cutDepth="0"
     shaper:pathType="interior"
     stroke="rgb(0,0,0)"
     transform="matrix(1,0,0,-1,0.6,7.202)"
     vector-effect="non-scaling-stroke"
     id="path20"
     style="stroke:#ff0000;stroke-opacity:1;fill:none" /></svg>
