<?xml version="1.0" encoding="UTF-8" standalone="no"?>
<svg
   xmlns:shaper="http://www.shapertools.com/namespaces/shaper"
   xmlns:dc="http://purl.org/dc/elements/1.1/"
   xmlns:cc="http://creativecommons.org/ns#"
   xmlns:rdf="http://www.w3.org/1999/02/22-rdf-syntax-ns#"
   xmlns:svg="http://www.w3.org/2000/svg"
   xmlns="http://www.w3.org/2000/svg"
   xmlns:sodipodi="http://sodipodi.sourceforge.net/DTD/sodipodi-0.dtd"
   xmlns:inkscape="http://www.inkscape.org/namespaces/inkscape"
   enable-background="new 0 0 29.0066208 7.202"
   height="7.202cm"
   shaper:fusionaddin="version:1.5.0"
   version="1.1"
   viewBox="0 0 29.0066208 7.202"
   width="29.0066208cm"
   x="0cm"
   xml:space="preserve"
   y="0cm"
   id="svg38"
   sodipodi:docname="2x_clock_frame_spacer_alt.svg"
   inkscape:version="1.0.2-2 (e86c870879, 2021-01-15)"><metadata
     id="metadata44"><rdf:RDF><cc:Work
         rdf:about=""><dc:format>image/svg+xml</dc:format><dc:type
           rdf:resource="http://purl.org/dc/dcmitype/StillImage" /></cc:Work></rdf:RDF></metadata><defs
     id="defs42" /><sodipodi:namedview
     pagecolor="#ffffff"
     bordercolor="#666666"
     borderopacity="1"
     objecttolerance="10"
     gridtolerance="10"
     guidetolerance="10"
     inkscape:pageopacity="0"
     inkscape:pageshadow="2"
     inkscape:window-width="3440"
     inkscape:window-height="1377"
     id="namedview40"
     showgrid="false"
     inkscape:zoom="1.0848981"
     inkscape:cx="548.15661"
     inkscape:cy="136.10079"
     inkscape:window-x="-8"
     inkscape:window-y="-8"
     inkscape:window-maximized="1"
     inkscape:current-layer="svg38" /><path
     d="M-0.6,0.6 A0.6,0.6 180 0,1 -0,-0 L27.8066208,0 A0.6,0.6 270 0,1 28.4066208,0.6 L28.4066208,6.602 A0.6,0.6 0 0,1 27.8066208,7.202 L0,7.202 A0.6,0.6 90 0,1 -0.6,6.602 L-0.6,0.6z"
     fill="rgb(0,0,0)"
     shaper:cutDepth="0"
     shaper:pathType="exterior"
     transform="matrix(1,0,0,-1,0.6,7.202)"
     vector-effect="non-scaling-stroke"
     id="path2"
     style="stroke:#ff0000;stroke-opacity:1;fill:none" /><path
     d="M21.5035792,6.1030296 a0.2,0.2 0 1,1 0.4,0 a0.2,0.2 0 1,1 -0.4,0z"
     fill="rgb(255,255,255)"
     shaper:cutDepth="0"
     shaper:pathType="interior"
     stroke="rgb(0,0,0)"
     transform="matrix(1,0,0,-1,0.6,7.202)"
     vector-effect="non-scaling-stroke"
     id="path4"
     style="stroke:#ff0000;stroke-opacity:1;fill:none" /><path
     d="M20.4026599,6.1018425 a0.2,0.2 0 1,1 0.4,0 a0.2,0.2 0 1,1 -0.4,0z"
     fill="rgb(255,255,255)"
     shaper:cutDepth="0"
     shaper:pathType="interior"
     stroke="rgb(0,0,0)"
     transform="matrix(1,0,0,-1,0.6,7.202)"
     vector-effect="non-scaling-stroke"
     id="path6"
     style="stroke:#ff0000;stroke-opacity:1;fill:none" /><path
     d="M26.9066208,1.5019999 L1.3,1.5019999 A1.05,1.05 270 0,0 0.25,2.5519999 L0.25,4.652 A1.05,1.05 180 0,0 1.3,5.702 L26.4566208,5.702 A1.05,1.05 90 0,0 27.5066208,4.652 L27.5066208,2.4486833 A1.05,1.05 0 0,0 26.9066208,1.5 L26.9066208,1.5019999z"
     fill="rgb(255,255,255)"
     shaper:cutDepth="0"
     shaper:pathType="interior"
     stroke="rgb(0,0,0)"
     transform="matrix(1,0,0,-1,0.6,7.202)"
     vector-effect="non-scaling-stroke"
     id="path8"
     style="stroke:#ff0000;stroke-opacity:1;fill:none" /><path
     d="M6.0719826,0.9 A0.2,0.2 261.5865062 1,0 6.130509,0.9 L6.0719826,0.9z"
     fill="rgb(255,255,255)"
     shaper:cutDepth="0"
     shaper:pathType="interior"
     stroke="rgb(0,0,0)"
     transform="matrix(1,0,0,-1,0.6,7.202)"
     vector-effect="non-scaling-stroke"
     id="path10"
     style="stroke:#ff0000;stroke-opacity:1;fill:none" /><path
     d="M20.4091207,1.102 a0.2,0.2 0 1,1 0.4,0 a0.2,0.2 0 1,1 -0.4,0z"
     fill="rgb(255,255,255)"
     shaper:cutDepth="0"
     shaper:pathType="interior"
     stroke="rgb(0,0,0)"
     transform="matrix(1,0,0,-1,0.6,7.202)"
     vector-effect="non-scaling-stroke"
     id="path12"
     style="stroke:#ff0000;stroke-opacity:1;fill:none" /><path
     d="M21.5091208,1.102 a0.2,0.2 0 1,1 0.4,0 a0.2,0.2 0 1,1 -0.4,0z"
     fill="rgb(255,255,255)"
     shaper:cutDepth="0"
     shaper:pathType="interior"
     stroke="rgb(0,0,0)"
     transform="matrix(1,0,0,-1,0.6,7.202)"
     vector-effect="non-scaling-stroke"
     id="path14"
     style="stroke:#ff0000;stroke-opacity:1;fill:none" /><path
     d="M5.9026597,6.1018425 a0.2,0.2 0 1,1 0.4,0 a0.2,0.2 0 1,1 -0.4,0z"
     fill="rgb(255,255,255)"
     shaper:cutDepth="0"
     shaper:pathType="interior"
     stroke="rgb(0,0,0)"
     transform="matrix(1,0,0,-1,0.6,7.202)"
     vector-effect="non-scaling-stroke"
     id="path16"
     style="stroke:#ff0000;stroke-opacity:1;fill:none" /><path
     d="M7.0000348,6.1029261 a0.2,0.2 0 1,1 0.4,0 a0.2,0.2 0 1,1 -0.4,0z"
     fill="rgb(255,255,255)"
     shaper:cutDepth="0"
     shaper:pathType="interior"
     stroke="rgb(0,0,0)"
     transform="matrix(1,0,0,-1,0.6,7.202)"
     vector-effect="non-scaling-stroke"
     id="path18"
     style="stroke:#ff0000;stroke-opacity:1;fill:none" /><path
     d="M0.3,1.1 a0.2,0.2 0 1,1 0.4,0 a0.2,0.2 0 1,1 -0.4,0z"
     fill="rgb(255,255,255)"
     shaper:cutDepth="0"
     shaper:pathType="interior"
     stroke="rgb(0,0,0)"
     transform="matrix(1,0,0,-1,0.6,7.202)"
     vector-effect="non-scaling-stroke"
     id="path20"
     style="stroke:#ff0000;stroke-opacity:1;fill:none" /><path
     d="M14.8044138,6.102 a0.2,0.2 0 1,1 0.4,0 a0.2,0.2 0 1,1 -0.4,0z"
     fill="rgb(255,255,255)"
     shaper:cutDepth="0"
     shaper:pathType="interior"
     stroke="rgb(0,0,0)"
     transform="matrix(1,0,0,-1,0.6,7.202)"
     vector-effect="non-scaling-stroke"
     id="path22"
     style="stroke:#ff0000;stroke-opacity:1;fill:none" /><path
     d="M12.6044138,6.102 a0.2,0.2 0 1,1 0.4,0 a0.2,0.2 0 1,1 -0.4,0z"
     fill="rgb(255,255,255)"
     shaper:cutDepth="0"
     shaper:pathType="interior"
     stroke="rgb(0,0,0)"
     transform="matrix(1,0,0,-1,0.6,7.202)"
     vector-effect="non-scaling-stroke"
     id="path24"
     style="stroke:#ff0000;stroke-opacity:1;fill:none" /><path
     d="M14.8044138,1.1 a0.2,0.2 0 1,1 0.4,0 a0.2,0.2 0 1,1 -0.4,0z"
     fill="rgb(255,255,255)"
     shaper:cutDepth="0"
     shaper:pathType="interior"
     stroke="rgb(0,0,0)"
     transform="matrix(1,0,0,-1,0.6,7.202)"
     vector-effect="non-scaling-stroke"
     id="path26"
     style="stroke:#ff0000;stroke-opacity:1;fill:none" /><path
     d="M12.6044138,1.1 a0.2,0.2 0 1,1 0.4,0 a0.2,0.2 0 1,1 -0.4,0z"
     fill="rgb(255,255,255)"
     shaper:cutDepth="0"
     shaper:pathType="interior"
     stroke="rgb(0,0,0)"
     transform="matrix(1,0,0,-1,0.6,7.202)"
     vector-effect="non-scaling-stroke"
     id="path28"
     style="stroke:#ff0000;stroke-opacity:1;fill:none" /><path
     d="M27.1066208,1.1019999 a0.2,0.2 0 1,1 0.4,0 a0.2,0.2 0 1,1 -0.4,0z"
     fill="rgb(255,255,255)"
     shaper:cutDepth="0"
     shaper:pathType="interior"
     stroke="rgb(0,0,0)"
     transform="matrix(1,0,0,-1,0.6,7.202)"
     vector-effect="non-scaling-stroke"
     id="path30"
     style="stroke:#ff0000;stroke-opacity:1;fill:none" /><path
     d="M0.3,6.102 a0.2,0.2 0 1,1 0.4,0 a0.2,0.2 0 1,1 -0.4,0z"
     fill="rgb(255,255,255)"
     shaper:cutDepth="0"
     shaper:pathType="interior"
     stroke="rgb(0,0,0)"
     transform="matrix(1,0,0,-1,0.6,7.202)"
     vector-effect="non-scaling-stroke"
     id="path32"
     style="stroke:#ff0000;stroke-opacity:1;fill:none" /><path
     d="M27.1066208,6.102 a0.2,0.2 0 1,1 0.4,0 a0.2,0.2 0 1,1 -0.4,0z"
     fill="rgb(255,255,255)"
     shaper:cutDepth="0"
     shaper:pathType="interior"
     stroke="rgb(0,0,0)"
     transform="matrix(1,0,0,-1,0.6,7.202)"
     vector-effect="non-scaling-stroke"
     id="path34"
     style="stroke:#ff0000;stroke-opacity:1;fill:none" /><path
     d="M7.1951841,0.9 A0.2,0.2 267.9249944 1,0 7.2096672,0.9 L7.1951841,0.9z"
     fill="rgb(255,255,255)"
     shaper:cutDepth="0"
     shaper:pathType="interior"
     stroke="rgb(0,0,0)"
     transform="matrix(1,0,0,-1,0.6,7.202)"
     vector-effect="non-scaling-stroke"
     id="path36"
     style="stroke:#ff0000;stroke-opacity:1;fill:none" /></svg>
