<?xml version="1.0" encoding="UTF-8" standalone="no"?>
<svg
   xmlns:shaper="http://www.shapertools.com/namespaces/shaper"
   xmlns:dc="http://purl.org/dc/elements/1.1/"
   xmlns:cc="http://creativecommons.org/ns#"
   xmlns:rdf="http://www.w3.org/1999/02/22-rdf-syntax-ns#"
   xmlns:svg="http://www.w3.org/2000/svg"
   xmlns="http://www.w3.org/2000/svg"
   xmlns:sodipodi="http://sodipodi.sourceforge.net/DTD/sodipodi-0.dtd"
   xmlns:inkscape="http://www.inkscape.org/namespaces/inkscape"
   enable-background="new 0 0 6.395 5.802"
   height="5.802cm"
   shaper:fusionaddin="version:1.5.0"
   version="1.1"
   viewBox="0 0 6.395 5.802"
   width="6.395cm"
   x="0cm"
   xml:space="preserve"
   y="0cm"
   id="svg36"
   sodipodi:docname="2_lightguide_top.svg"
   inkscape:version="1.0.2-2 (e86c870879, 2021-01-15)"><metadata
     id="metadata42"><rdf:RDF><cc:Work
         rdf:about=""><dc:format>image/svg+xml</dc:format><dc:type
           rdf:resource="http://purl.org/dc/dcmitype/StillImage" /></cc:Work></rdf:RDF></metadata><defs
     id="defs40" /><sodipodi:namedview
     pagecolor="#ffffff"
     bordercolor="#666666"
     borderopacity="1"
     objecttolerance="10"
     gridtolerance="10"
     guidetolerance="10"
     inkscape:pageopacity="0"
     inkscape:pageshadow="2"
     inkscape:window-width="2034"
     inkscape:window-height="1155"
     id="namedview38"
     showgrid="false"
     inkscape:zoom="4.0158224"
     inkscape:cx="120.85039"
     inkscape:cy="109.6441"
     inkscape:window-x="0"
     inkscape:window-y="0"
     inkscape:window-maximized="0"
     inkscape:current-layer="svg36" /><path
     d="M5.995,0.4 L5.995,5.402 A0.4,0.4 0 0,1 5.595,5.802 L0,5.802 A0.4,0.4 89.9999988 0,1 -0.4,5.402 L-0.4,0.4 A0.4,0.4 180 0,1 -0,0 L5.595,0 A0.4,0.4 270 0,1 5.995,0.4z"
     fill="rgb(0,0,0)"
     shaper:cutDepth="0.004"
     shaper:pathType="exterior"
     transform="matrix(1,0,0,-1,0.4,5.802)"
     vector-effect="non-scaling-stroke"
     id="path2"
     style="fill:none;stroke:#ff0000;stroke-opacity:1" /><path
     d="M3.215,4.001 L4.13,4.001 4.13,3.801 3.215,3.801 3.215,4.001z"
     fill="rgb(255,255,255)"
     shaper:cutDepth="0.004"
     shaper:pathType="interior"
     stroke="rgb(0,0,0)"
     transform="matrix(1,0,0,-1,0.4,5.802)"
     vector-effect="non-scaling-stroke"
     id="path4"
     style="fill:none;stroke:#ff0000;stroke-opacity:1" /><path
     d="M3.215,1.601 L4.13,1.601 4.13,1.401 3.215,1.401 3.215,1.601z"
     fill="rgb(255,255,255)"
     shaper:cutDepth="0.004"
     shaper:pathType="interior"
     stroke="rgb(0,0,0)"
     transform="matrix(1,0,0,-1,0.4,5.802)"
     vector-effect="non-scaling-stroke"
     id="path6"
     style="fill:none;stroke:#ff0000;stroke-opacity:1" /><path
     d="M1.465,4.401 L2.38,4.401 2.38,4.201 1.465,4.201 1.465,4.401z"
     fill="rgb(255,255,255)"
     shaper:cutDepth="0.004"
     shaper:pathType="interior"
     stroke="rgb(0,0,0)"
     transform="matrix(1,0,0,-1,0.4,5.802)"
     vector-effect="non-scaling-stroke"
     id="path8"
     style="fill:none;stroke:#ff0000;stroke-opacity:1" /><path
     d="M1.465,2.801 L2.38,2.801 2.38,2.601 1.465,2.601 1.465,2.801z"
     fill="rgb(255,255,255)"
     shaper:cutDepth="0.004"
     shaper:pathType="interior"
     stroke="rgb(0,0,0)"
     transform="matrix(1,0,0,-1,0.4,5.802)"
     vector-effect="non-scaling-stroke"
     id="path10"
     style="fill:none;stroke:#ff0000;stroke-opacity:1" /><path
     d="M1.465,3.601 L2.38,3.601 2.38,3.401 1.465,3.401 1.465,3.601z"
     fill="rgb(255,255,255)"
     shaper:cutDepth="0.004"
     shaper:pathType="interior"
     stroke="rgb(0,0,0)"
     transform="matrix(1,0,0,-1,0.4,5.802)"
     vector-effect="non-scaling-stroke"
     id="path12"
     style="fill:none;stroke:#ff0000;stroke-opacity:1" /><path
     d="M1.465,2.001 L2.38,2.001 2.38,1.801 1.465,1.801 1.465,2.001z"
     fill="rgb(255,255,255)"
     shaper:cutDepth="0.004"
     shaper:pathType="interior"
     stroke="rgb(0,0,0)"
     transform="matrix(1,0,0,-1,0.4,5.802)"
     vector-effect="non-scaling-stroke"
     id="path14"
     style="fill:none;stroke:#ff0000;stroke-opacity:1" /><path
     d="M1.465,1.201 L2.38,1.201 2.38,1 2.205,1 2.205,1.001 1.465,1.001 1.465,1.201z"
     fill="rgb(255,255,255)"
     shaper:cutDepth="0.004"
     shaper:pathType="interior"
     stroke="rgb(0,0,0)"
     transform="matrix(1,0,0,-1,0.4,5.802)"
     vector-effect="non-scaling-stroke"
     id="path16"
     style="fill:none;stroke:#ff0000;stroke-opacity:1" /><path
     d="M3.215,2.401 L4.13,2.401 4.13,2.201 3.215,2.201 3.215,2.401z"
     fill="rgb(255,255,255)"
     shaper:cutDepth="0.004"
     shaper:pathType="interior"
     stroke="rgb(0,0,0)"
     transform="matrix(1,0,0,-1,0.4,5.802)"
     vector-effect="non-scaling-stroke"
     id="path18"
     style="fill:none;stroke:#ff0000;stroke-opacity:1" /><path
     d="M3.215,3.201 L4.13,3.201 4.13,3.001 3.215,3.001 3.215,3.201z"
     fill="rgb(255,255,255)"
     shaper:cutDepth="0.004"
     shaper:pathType="interior"
     stroke="rgb(0,0,0)"
     transform="matrix(1,0,0,-1,0.4,5.802)"
     vector-effect="non-scaling-stroke"
     id="path20"
     style="fill:none;stroke:#ff0000;stroke-opacity:1" /><path
     d="M3.215,4.801 L4.13,4.801 4.13,4.601 3.215,4.601 3.215,4.801z"
     fill="rgb(255,255,255)"
     shaper:cutDepth="0.004"
     shaper:pathType="interior"
     stroke="rgb(0,0,0)"
     transform="matrix(1,0,0,-1,0.4,5.802)"
     vector-effect="non-scaling-stroke"
     id="path22"
     style="fill:none;stroke:#ff0000;stroke-opacity:1" /><path
     d="M0.25,4.802 L1.03,4.802 1.03,1 0.25,1 0.25,4.802z"
     fill="rgb(255,255,255)"
     shaper:cutDepth="0.004"
     shaper:pathType="interior"
     stroke="rgb(0,0,0)"
     transform="matrix(1,0,0,-1,0.4,5.802)"
     vector-effect="non-scaling-stroke"
     id="path24"
     style="fill:none;stroke:#ff0000;stroke-opacity:1" /><path
     d="M5.395,5.402 a0.2,0.2 0 1,1 0.4,0 a0.2,0.2 0 1,1 -0.4,0z"
     fill="rgb(255,255,255)"
     shaper:cutDepth="0.004"
     shaper:pathType="interior"
     stroke="rgb(0,0,0)"
     transform="matrix(1,0,0,-1,0.4,5.802)"
     vector-effect="non-scaling-stroke"
     id="path26"
     style="fill:none;stroke:#ff0000;stroke-opacity:1" /><path
     d="M-0.2,0.4 a0.2,0.2 0 1,1 0.4,0 a0.2,0.2 0 1,1 -0.4,0z"
     fill="rgb(255,255,255)"
     shaper:cutDepth="0.004"
     shaper:pathType="interior"
     stroke="rgb(0,0,0)"
     transform="matrix(1,0,0,-1,0.4,5.802)"
     vector-effect="non-scaling-stroke"
     id="path28"
     style="fill:none;stroke:#ff0000;stroke-opacity:1" /><path
     d="M-0.2,5.402 a0.2,0.2 0 1,1 0.4,0 a0.2,0.2 0 1,1 -0.4,0z"
     fill="rgb(255,255,255)"
     shaper:cutDepth="0.004"
     shaper:pathType="interior"
     stroke="rgb(0,0,0)"
     transform="matrix(1,0,0,-1,0.4,5.802)"
     vector-effect="non-scaling-stroke"
     id="path30"
     style="fill:none;stroke:#ff0000;stroke-opacity:1" /><path
     d="M5.395,0.4 a0.2,0.2 0 1,1 0.4,0 a0.2,0.2 0 1,1 -0.4,0z"
     fill="rgb(255,255,255)"
     shaper:cutDepth="0.004"
     shaper:pathType="interior"
     stroke="rgb(0,0,0)"
     transform="matrix(1,0,0,-1,0.4,5.802)"
     vector-effect="non-scaling-stroke"
     id="path32"
     style="fill:none;stroke:#ff0000;stroke-opacity:1" /><path
     d="M4.565,4.802 L4.565,1 5.345,1 5.345,4.802 4.565,4.802z"
     fill="rgb(255,255,255)"
     shaper:cutDepth="0.004"
     shaper:pathType="interior"
     stroke="rgb(0,0,0)"
     transform="matrix(1,0,0,-1,0.4,5.802)"
     vector-effect="non-scaling-stroke"
     id="path34"
     style="fill:none;stroke:#ff0000;stroke-opacity:1" /></svg>
