<?xml version="1.0" encoding="UTF-8" standalone="no"?>
<svg
   xmlns:shaper="http://www.shapertools.com/namespaces/shaper"
   xmlns:dc="http://purl.org/dc/elements/1.1/"
   xmlns:cc="http://creativecommons.org/ns#"
   xmlns:rdf="http://www.w3.org/1999/02/22-rdf-syntax-ns#"
   xmlns:svg="http://www.w3.org/2000/svg"
   xmlns="http://www.w3.org/2000/svg"
   xmlns:sodipodi="http://sodipodi.sourceforge.net/DTD/sodipodi-0.dtd"
   xmlns:inkscape="http://www.inkscape.org/namespaces/inkscape"
   enable-background="new 0 0 6.395 5.802"
   height="5.802cm"
   shaper:fusionaddin="version:1.5.0"
   version="1.1"
   viewBox="0 0 6.395 5.802"
   width="6.395cm"
   x="0cm"
   xml:space="preserve"
   y="0cm"
   id="svg32"
   sodipodi:docname="4x_top_cover.svg"
   inkscape:version="1.0.2-2 (e86c870879, 2021-01-15)"><metadata
     id="metadata38"><rdf:RDF><cc:Work
         rdf:about=""><dc:format>image/svg+xml</dc:format><dc:type
           rdf:resource="http://purl.org/dc/dcmitype/StillImage" /></cc:Work></rdf:RDF></metadata><defs
     id="defs36" /><sodipodi:namedview
     pagecolor="#ffffff"
     bordercolor="#666666"
     borderopacity="1"
     objecttolerance="10"
     gridtolerance="10"
     guidetolerance="10"
     inkscape:pageopacity="0"
     inkscape:pageshadow="2"
     inkscape:window-width="3440"
     inkscape:window-height="1377"
     id="namedview34"
     showgrid="false"
     inkscape:zoom="4.9209113"
     inkscape:cx="120.85039"
     inkscape:cy="109.6441"
     inkscape:window-x="-8"
     inkscape:window-y="-8"
     inkscape:window-maximized="1"
     inkscape:current-layer="svg32" /><path
     d="M-0.4,5.402 L-0.4,0.4 A0.4,0.4 180 0,1 -0,0 L5.595,0 A0.4,0.4 270 0,1 5.995,0.4 L5.995,5.402 A0.4,0.4 0 0,1 5.595,5.802 L0,5.802 A0.4,0.4 90 0,1 -0.4,5.402z"
     fill="rgb(0,0,0)"
     shaper:cutDepth="0.004"
     shaper:pathType="exterior"
     transform="matrix(1,0,0,-1,0.4,5.802)"
     vector-effect="non-scaling-stroke"
     id="path2"
     style="stroke:#ff0000;stroke-opacity:1;fill:none" /><path
     d="M0.6,1.601 L4.995,1.601 4.995,1.401 0.6,1.401 0.6,1.601z"
     fill="rgb(255,255,255)"
     shaper:cutDepth="0.004"
     shaper:pathType="interior"
     stroke="rgb(0,0,0)"
     transform="matrix(1,0,0,-1,0.4,5.802)"
     vector-effect="non-scaling-stroke"
     id="path4"
     style="stroke:#ff0000;stroke-opacity:1;fill:none" /><path
     d="M0.6,3.201 L4.995,3.201 4.995,3.001 0.6,3.001 0.6,3.201z"
     fill="rgb(255,255,255)"
     shaper:cutDepth="0.004"
     shaper:pathType="interior"
     stroke="rgb(0,0,0)"
     transform="matrix(1,0,0,-1,0.4,5.802)"
     vector-effect="non-scaling-stroke"
     id="path6"
     style="stroke:#ff0000;stroke-opacity:1;fill:none" /><path
     d="M0.6,4.801 L4.995,4.801 4.995,4.601 0.6,4.601 0.6,4.801z"
     fill="rgb(255,255,255)"
     shaper:cutDepth="0.004"
     shaper:pathType="interior"
     stroke="rgb(0,0,0)"
     transform="matrix(1,0,0,-1,0.4,5.802)"
     vector-effect="non-scaling-stroke"
     id="path8"
     style="stroke:#ff0000;stroke-opacity:1;fill:none" /><path
     d="M4.995,3.401 L0.6,3.401 0.6,3.601 4.995,3.601 4.995,3.401z"
     fill="rgb(255,255,255)"
     shaper:cutDepth="0.004"
     shaper:pathType="interior"
     stroke="rgb(0,0,0)"
     transform="matrix(1,0,0,-1,0.4,5.802)"
     vector-effect="non-scaling-stroke"
     id="path10"
     style="stroke:#ff0000;stroke-opacity:1;fill:none" /><path
     d="M4.995,1.801 L0.6,1.801 0.6,2.001 4.995,2.001 4.995,1.801z"
     fill="rgb(255,255,255)"
     shaper:cutDepth="0.004"
     shaper:pathType="interior"
     stroke="rgb(0,0,0)"
     transform="matrix(1,0,0,-1,0.4,5.802)"
     vector-effect="non-scaling-stroke"
     id="path12"
     style="stroke:#ff0000;stroke-opacity:1;fill:none" /><path
     d="M0.6,1.201 L4.995,1.201 4.995,1.001 0.6,1.001 0.6,1.201z"
     fill="rgb(255,255,255)"
     shaper:cutDepth="0.004"
     shaper:pathType="interior"
     stroke="rgb(0,0,0)"
     transform="matrix(1,0,0,-1,0.4,5.802)"
     vector-effect="non-scaling-stroke"
     id="path14"
     style="stroke:#ff0000;stroke-opacity:1;fill:none" /><path
     d="M4.995,2.201 L0.6,2.201 0.6,2.401 4.995,2.401 4.995,2.201z"
     fill="rgb(255,255,255)"
     shaper:cutDepth="0.004"
     shaper:pathType="interior"
     stroke="rgb(0,0,0)"
     transform="matrix(1,0,0,-1,0.4,5.802)"
     vector-effect="non-scaling-stroke"
     id="path16"
     style="stroke:#ff0000;stroke-opacity:1;fill:none" /><path
     d="M0.6,2.801 L4.995,2.801 4.995,2.601 0.6,2.601 0.6,2.801z"
     fill="rgb(255,255,255)"
     shaper:cutDepth="0.004"
     shaper:pathType="interior"
     stroke="rgb(0,0,0)"
     transform="matrix(1,0,0,-1,0.4,5.802)"
     vector-effect="non-scaling-stroke"
     id="path18"
     style="stroke:#ff0000;stroke-opacity:1;fill:none" /><path
     d="M4.995,3.801 L0.6,3.801 0.6,4.001 4.995,4.001 4.995,3.801z"
     fill="rgb(255,255,255)"
     shaper:cutDepth="0.004"
     shaper:pathType="interior"
     stroke="rgb(0,0,0)"
     transform="matrix(1,0,0,-1,0.4,5.802)"
     vector-effect="non-scaling-stroke"
     id="path20"
     style="stroke:#ff0000;stroke-opacity:1;fill:none" /><path
     d="M0.6,4.401 L4.995,4.401 4.995,4.201 0.6,4.201 0.6,4.401z"
     fill="rgb(255,255,255)"
     shaper:cutDepth="0.004"
     shaper:pathType="interior"
     stroke="rgb(0,0,0)"
     transform="matrix(1,0,0,-1,0.4,5.802)"
     vector-effect="non-scaling-stroke"
     id="path22"
     style="stroke:#ff0000;stroke-opacity:1;fill:none" /><path
     d="M-0.2,5.402 a0.2,0.2 0 1,1 0.4,0 a0.2,0.2 0 1,1 -0.4,0z"
     fill="rgb(255,255,255)"
     shaper:cutDepth="0.004"
     shaper:pathType="interior"
     stroke="rgb(0,0,0)"
     transform="matrix(1,0,0,-1,0.4,5.802)"
     vector-effect="non-scaling-stroke"
     id="path24"
     style="stroke:#ff0000;stroke-opacity:1;fill:none" /><path
     d="M5.395,0.4 a0.2,0.2 0 1,1 0.4,0 a0.2,0.2 0 1,1 -0.4,0z"
     fill="rgb(255,255,255)"
     shaper:cutDepth="0.004"
     shaper:pathType="interior"
     stroke="rgb(0,0,0)"
     transform="matrix(1,0,0,-1,0.4,5.802)"
     vector-effect="non-scaling-stroke"
     id="path26"
     style="stroke:#ff0000;stroke-opacity:1;fill:none" /><path
     d="M5.395,5.402 a0.2,0.2 0 1,1 0.4,0 a0.2,0.2 0 1,1 -0.4,0z"
     fill="rgb(255,255,255)"
     shaper:cutDepth="0.004"
     shaper:pathType="interior"
     stroke="rgb(0,0,0)"
     transform="matrix(1,0,0,-1,0.4,5.802)"
     vector-effect="non-scaling-stroke"
     id="path28"
     style="stroke:#ff0000;stroke-opacity:1;fill:none" /><path
     d="M-0.2,0.4 a0.2,0.2 0 1,1 0.4,0 a0.2,0.2 0 1,1 -0.4,0z"
     fill="rgb(255,255,255)"
     shaper:cutDepth="0.004"
     shaper:pathType="interior"
     stroke="rgb(0,0,0)"
     transform="matrix(1,0,0,-1,0.4,5.802)"
     vector-effect="non-scaling-stroke"
     id="path30"
     style="stroke:#ff0000;stroke-opacity:1;fill:none" /></svg>
