<?xml version="1.0" encoding="UTF-8" standalone="no"?>
<svg
   xmlns:shaper="http://www.shapertools.com/namespaces/shaper"
   xmlns:dc="http://purl.org/dc/elements/1.1/"
   xmlns:cc="http://creativecommons.org/ns#"
   xmlns:rdf="http://www.w3.org/1999/02/22-rdf-syntax-ns#"
   xmlns:svg="http://www.w3.org/2000/svg"
   xmlns="http://www.w3.org/2000/svg"
   xmlns:sodipodi="http://sodipodi.sourceforge.net/DTD/sodipodi-0.dtd"
   xmlns:inkscape="http://www.inkscape.org/namespaces/inkscape"
   enable-background="new 0 0 6.395 5.802"
   height="5.802cm"
   shaper:fusionaddin="version:1.5.0"
   version="1.1"
   viewBox="0 0 6.395 5.802"
   width="6.395cm"
   x="0cm"
   xml:space="preserve"
   y="0cm"
   id="svg14"
   sodipodi:docname="5_bottom.svg"
   inkscape:version="1.0.2-2 (e86c870879, 2021-01-15)"><metadata
     id="metadata20"><rdf:RDF><cc:Work
         rdf:about=""><dc:format>image/svg+xml</dc:format><dc:type
           rdf:resource="http://purl.org/dc/dcmitype/StillImage" /></cc:Work></rdf:RDF></metadata><defs
     id="defs18" /><sodipodi:namedview
     pagecolor="#ffffff"
     bordercolor="#666666"
     borderopacity="1"
     objecttolerance="10"
     gridtolerance="10"
     guidetolerance="10"
     inkscape:pageopacity="0"
     inkscape:pageshadow="2"
     inkscape:window-width="1609"
     inkscape:window-height="1019"
     id="namedview16"
     showgrid="false"
     inkscape:zoom="3.4613535"
     inkscape:cx="120.85039"
     inkscape:cy="109.6441"
     inkscape:window-x="0"
     inkscape:window-y="0"
     inkscape:window-maximized="0"
     inkscape:current-layer="svg14" /><path
     d="M5.995,0.4 L5.995,5.402 A0.4,0.4 0 0,1 5.595,5.802 L0,5.802 A0.4,0.4 89.9999988 0,1 -0.4,5.402 L-0.4,0.4 A0.4,0.4 180 0,1 -0,0 L5.595,0 A0.4,0.4 270 0,1 5.995,0.4z"
     fill="rgb(0,0,0)"
     shaper:cutDepth="0.004"
     shaper:pathType="exterior"
     transform="matrix(1,0,0,-1,0.4,5.802)"
     vector-effect="non-scaling-stroke"
     id="path2"
     style="fill:none;stroke:#ff0000;stroke-opacity:1" /><path
     d="M0.25,4.802 L1.03,4.802 1.03,1 0.25,1 0.25,4.802z"
     fill="rgb(255,255,255)"
     shaper:cutDepth="0.004"
     shaper:pathType="interior"
     stroke="rgb(0,0,0)"
     transform="matrix(1,0,0,-1,0.4,5.802)"
     vector-effect="non-scaling-stroke"
     id="path4"
     style="fill:none;stroke:#ff0000;stroke-opacity:1" /><path
     d="M5.395,5.402 a0.2,0.2 0 1,1 0.4,0 a0.2,0.2 0 1,1 -0.4,0z"
     fill="rgb(255,255,255)"
     shaper:cutDepth="0.004"
     shaper:pathType="interior"
     stroke="rgb(0,0,0)"
     transform="matrix(1,0,0,-1,0.4,5.802)"
     vector-effect="non-scaling-stroke"
     id="path6"
     style="fill:none;stroke:#ff0000;stroke-opacity:1" /><path
     d="M-0.2,0.4 a0.2,0.2 0 1,1 0.4,0 a0.2,0.2 0 1,1 -0.4,0z"
     fill="rgb(255,255,255)"
     shaper:cutDepth="0.004"
     shaper:pathType="interior"
     stroke="rgb(0,0,0)"
     transform="matrix(1,0,0,-1,0.4,5.802)"
     vector-effect="non-scaling-stroke"
     id="path8"
     style="fill:none;stroke:#ff0000;stroke-opacity:1" /><path
     d="M-0.2,5.402 a0.2,0.2 0 1,1 0.4,0 a0.2,0.2 0 1,1 -0.4,0z"
     fill="rgb(255,255,255)"
     shaper:cutDepth="0.004"
     shaper:pathType="interior"
     stroke="rgb(0,0,0)"
     transform="matrix(1,0,0,-1,0.4,5.802)"
     vector-effect="non-scaling-stroke"
     id="path10"
     style="fill:none;stroke:#ff0000;stroke-opacity:1" /><path
     d="M5.395,0.4 a0.2,0.2 0 1,1 0.4,0 a0.2,0.2 0 1,1 -0.4,0z"
     fill="rgb(255,255,255)"
     shaper:cutDepth="0.004"
     shaper:pathType="interior"
     stroke="rgb(0,0,0)"
     transform="matrix(1,0,0,-1,0.4,5.802)"
     vector-effect="non-scaling-stroke"
     id="path12"
     style="fill:none;stroke:#ff0000;stroke-opacity:1" /></svg>
